<svg width="285" height="56" viewBox="0 0 285 56" fill="none" xmlns="http://www.w3.org/2000/svg">
<path d="M70.3945 27.3613V28.6416C70.3945 30.695 70.1162 32.5381 69.5596 34.1709C69.0029 35.8037 68.2174 37.1953 67.2031 38.3457C66.1888 39.4837 64.9766 40.3558 63.5664 40.9619C62.1686 41.568 60.6162 41.8711 58.9092 41.8711C57.2145 41.8711 55.6621 41.568 54.252 40.9619C52.8542 40.3558 51.6419 39.4837 50.6152 38.3457C49.5885 37.1953 48.7907 35.8037 48.2217 34.1709C47.665 32.5381 47.3867 30.695 47.3867 28.6416V27.3613C47.3867 25.2956 47.665 23.4525 48.2217 21.832C48.7783 20.1992 49.5638 18.8076 50.5781 17.6572C51.6048 16.5069 52.8171 15.6286 54.2148 15.0225C55.625 14.4164 57.1774 14.1133 58.8721 14.1133C60.5791 14.1133 62.1315 14.4164 63.5293 15.0225C64.9395 15.6286 66.1517 16.5069 67.166 17.6572C68.1927 18.8076 68.9844 20.1992 69.541 21.832C70.11 23.4525 70.3945 25.2956 70.3945 27.3613ZM64.7725 28.6416V27.3242C64.7725 25.8893 64.6426 24.6276 64.3828 23.5391C64.123 22.4505 63.7396 21.5352 63.2324 20.793C62.7253 20.0508 62.1068 19.4942 61.377 19.1231C60.6471 18.7396 59.8122 18.5479 58.8721 18.5479C57.932 18.5479 57.097 18.7396 56.3672 19.1231C55.6497 19.4942 55.0374 20.0508 54.5303 20.793C54.0355 21.5352 53.6582 22.4505 53.3984 23.5391C53.1387 24.6276 53.0088 25.8893 53.0088 27.3242V28.6416C53.0088 30.0641 53.1387 31.3259 53.3984 32.4268C53.6582 33.5153 54.0417 34.4369 54.5488 35.1914C55.056 35.9336 55.6745 36.4964 56.4043 36.8799C57.1341 37.2634 57.9691 37.4551 58.9092 37.4551C59.8493 37.4551 60.6842 37.2634 61.4141 36.8799C62.1439 36.4964 62.7562 35.9336 63.251 35.1914C63.7458 34.4369 64.123 33.5153 64.3828 32.4268C64.6426 31.3259 64.7725 30.0641 64.7725 28.6416ZM79.709 13V41.5H74.3467V13H79.709ZM94.9609 36.9727V28.0293C94.9609 27.3861 94.8558 26.8356 94.6455 26.3779C94.4352 25.9079 94.1074 25.543 93.6621 25.2832C93.2292 25.0235 92.6663 24.8936 91.9736 24.8936C91.3799 24.8936 90.8665 24.9987 90.4336 25.209C90.0007 25.4069 89.6667 25.6976 89.4316 26.0811C89.1966 26.4522 89.0791 26.8913 89.0791 27.3985H83.7354C83.7354 26.5449 83.9333 25.7347 84.3291 24.9678C84.7249 24.2009 85.3001 23.5267 86.0547 22.9453C86.8092 22.3516 87.7061 21.8877 88.7451 21.5537C89.7965 21.2197 90.9717 21.0527 92.2705 21.0527C93.8291 21.0527 95.2145 21.3125 96.4268 21.832C97.639 22.3516 98.5915 23.1309 99.2842 24.1699C99.9893 25.209 100.342 26.5078 100.342 28.0664V36.6572C100.342 37.7582 100.41 38.6611 100.546 39.3662C100.682 40.0589 100.88 40.6651 101.14 41.1846V41.5H95.7402C95.4805 40.9557 95.2826 40.2754 95.1465 39.459C95.0228 38.6302 94.9609 37.8014 94.9609 36.9727ZM95.666 29.2725L95.7031 32.2969H92.7158C92.0107 32.2969 91.3984 32.3773 90.8789 32.5381C90.3594 32.6989 89.9326 32.9277 89.5986 33.2246C89.2646 33.5091 89.0173 33.8431 88.8564 34.2266C88.708 34.61 88.6338 35.0306 88.6338 35.4883C88.6338 35.946 88.7389 36.3604 88.9492 36.7315C89.1595 37.0902 89.4626 37.3747 89.8584 37.585C90.2542 37.7829 90.7181 37.8819 91.25 37.8819C92.054 37.8819 92.7529 37.721 93.3467 37.3994C93.9404 37.0778 94.3981 36.682 94.7197 36.2119C95.0537 35.7419 95.2269 35.2966 95.2393 34.876L96.6494 37.1397C96.4515 37.6468 96.1794 38.1725 95.833 38.7168C95.499 39.2611 95.0723 39.7744 94.5527 40.2569C94.0332 40.7269 93.4085 41.1166 92.6787 41.4258C91.9489 41.7227 91.083 41.8711 90.0811 41.8711C88.807 41.8711 87.6504 41.6175 86.6113 41.1104C85.5846 40.5908 84.7682 39.8796 84.1621 38.9766C83.5684 38.0612 83.2715 37.0222 83.2715 35.8594C83.2715 34.808 83.4694 33.874 83.8652 33.0576C84.2611 32.2412 84.8424 31.5547 85.6094 30.9981C86.3887 30.4291 87.3597 30.0023 88.5225 29.7178C89.6852 29.4209 91.0335 29.2725 92.5674 29.2725H95.666ZM104.461 13H109.805V36.8985L109.267 41.5H104.461V13ZM122.515 31.2578V31.6475C122.515 33.1442 122.354 34.5173 122.032 35.7666C121.723 37.016 121.241 38.0983 120.585 39.0137C119.929 39.9167 119.113 40.6218 118.136 41.1289C117.171 41.6237 116.033 41.8711 114.722 41.8711C113.497 41.8711 112.433 41.6237 111.53 41.1289C110.64 40.6341 109.891 39.9352 109.285 39.0322C108.679 38.1292 108.19 37.0716 107.819 35.8594C107.448 34.6472 107.17 33.3236 106.984 31.8887V31.0352C107.17 29.6003 107.448 28.2767 107.819 27.0645C108.19 25.8522 108.679 24.7946 109.285 23.8916C109.891 22.9886 110.64 22.2897 111.53 21.7949C112.421 21.3001 113.472 21.0527 114.685 21.0527C116.008 21.0527 117.159 21.3063 118.136 21.8135C119.125 22.3083 119.942 23.0134 120.585 23.9287C121.241 24.8317 121.723 25.9079 122.032 27.1572C122.354 28.3942 122.515 29.7611 122.515 31.2578ZM117.171 31.6475V31.2578C117.171 30.4414 117.109 29.6745 116.985 28.957C116.874 28.2272 116.676 27.5902 116.392 27.0459C116.107 26.4893 115.717 26.0501 115.223 25.7285C114.74 25.4069 114.116 25.2461 113.349 25.2461C112.619 25.2461 112 25.3698 111.493 25.6172C110.986 25.8646 110.565 26.211 110.231 26.6563C109.91 27.1016 109.669 27.6335 109.508 28.252C109.347 28.8581 109.248 29.5261 109.211 30.2559V32.6865C109.248 33.6638 109.409 34.5296 109.693 35.2842C109.99 36.0264 110.436 36.6139 111.029 37.0469C111.635 37.4675 112.421 37.6777 113.386 37.6777C114.14 37.6777 114.765 37.5293 115.26 37.2324C115.755 36.9356 116.138 36.515 116.41 35.9707C116.695 35.4264 116.893 34.7894 117.004 34.0596C117.115 33.3174 117.171 32.5134 117.171 31.6475ZM131.477 21.4238V41.5H126.114V21.4238H131.477ZM125.78 16.1914C125.78 15.4121 126.052 14.7689 126.597 14.2617C127.141 13.7546 127.871 13.501 128.786 13.501C129.689 13.501 130.413 13.7546 130.957 14.2617C131.514 14.7689 131.792 15.4121 131.792 16.1914C131.792 16.9707 131.514 17.6139 130.957 18.1211C130.413 18.6283 129.689 18.8819 128.786 18.8819C127.871 18.8819 127.141 18.6283 126.597 18.1211C126.052 17.6139 125.78 16.9707 125.78 16.1914ZM146.747 35.9522C146.747 35.5687 146.636 35.2223 146.413 34.9131C146.19 34.6039 145.776 34.3194 145.17 34.0596C144.576 33.7875 143.716 33.5401 142.591 33.3174C141.576 33.0947 140.63 32.8164 139.752 32.4824C138.886 32.1361 138.132 31.7217 137.488 31.2393C136.857 30.7569 136.363 30.1878 136.004 29.5322C135.645 28.8643 135.466 28.1035 135.466 27.25C135.466 26.4089 135.645 25.6172 136.004 24.875C136.375 24.1328 136.901 23.4772 137.581 22.9082C138.274 22.3268 139.115 21.8753 140.104 21.5537C141.106 21.2197 142.232 21.0527 143.481 21.0527C145.226 21.0527 146.722 21.3311 147.972 21.8877C149.233 22.4444 150.198 23.2113 150.866 24.1885C151.547 25.1533 151.887 26.2542 151.887 27.4912H146.543C146.543 26.9717 146.432 26.5078 146.209 26.0996C145.999 25.6791 145.665 25.3513 145.207 25.1162C144.762 24.8688 144.18 24.7451 143.463 24.7451C142.869 24.7451 142.356 24.8503 141.923 25.0606C141.49 25.2585 141.156 25.5306 140.921 25.877C140.698 26.211 140.587 26.582 140.587 26.9902C140.587 27.2995 140.649 27.5778 140.772 27.8252C140.909 28.0602 141.125 28.2767 141.422 28.4746C141.719 28.6725 142.102 28.8581 142.572 29.0313C143.055 29.1921 143.648 29.3405 144.354 29.4766C145.801 29.7735 147.093 30.1631 148.231 30.6455C149.369 31.1156 150.272 31.7588 150.94 32.5752C151.608 33.3792 151.942 34.4369 151.942 35.7481C151.942 36.6387 151.744 37.4551 151.349 38.1973C150.953 38.9395 150.384 39.5889 149.642 40.1455C148.899 40.6898 148.009 41.1166 146.97 41.4258C145.943 41.7227 144.786 41.8711 143.5 41.8711C141.632 41.8711 140.049 41.5371 138.75 40.8692C137.464 40.2012 136.486 39.3539 135.818 38.3272C135.163 37.2881 134.835 36.2243 134.835 35.1358H139.9C139.925 35.8656 140.111 36.4531 140.457 36.8985C140.816 37.3438 141.267 37.6654 141.812 37.8633C142.368 38.0612 142.968 38.1602 143.611 38.1602C144.304 38.1602 144.879 38.0674 145.337 37.8819C145.795 37.6839 146.141 37.4242 146.376 37.1026C146.623 36.7686 146.747 36.3851 146.747 35.9522ZM161.053 21.4238V41.5H155.69V21.4238H161.053ZM155.356 16.1914C155.356 15.4121 155.629 14.7689 156.173 14.2617C156.717 13.7546 157.447 13.501 158.362 13.501C159.265 13.501 159.989 13.7546 160.533 14.2617C161.09 14.7689 161.368 15.4121 161.368 16.1914C161.368 16.9707 161.09 17.6139 160.533 18.1211C159.989 18.6283 159.265 18.8819 158.362 18.8819C157.447 18.8819 156.717 18.6283 156.173 18.1211C155.629 17.6139 155.356 16.9707 155.356 16.1914ZM168.475 13V15.6904L167.937 23.0938H164.56L164.578 15.9688V13H168.475ZM180.813 35.9522C180.813 35.5687 180.702 35.2223 180.479 34.9131C180.257 34.6039 179.842 34.3194 179.236 34.0596C178.643 33.7875 177.783 33.5401 176.657 33.3174C175.643 33.0947 174.697 32.8164 173.818 32.4824C172.952 32.1361 172.198 31.7217 171.555 31.2393C170.924 30.7569 170.429 30.1878 170.07 29.5322C169.712 28.8643 169.532 28.1035 169.532 27.25C169.532 26.4089 169.712 25.6172 170.07 24.875C170.441 24.1328 170.967 23.4772 171.647 22.9082C172.34 22.3268 173.181 21.8753 174.171 21.5537C175.173 21.2197 176.299 21.0527 177.548 21.0527C179.292 21.0527 180.789 21.3311 182.038 21.8877C183.3 22.4444 184.265 23.2113 184.933 24.1885C185.613 25.1533 185.953 26.2542 185.953 27.4912H180.609C180.609 26.9717 180.498 26.5078 180.275 26.0996C180.065 25.6791 179.731 25.3513 179.273 25.1162C178.828 24.8688 178.247 24.7451 177.529 24.7451C176.936 24.7451 176.422 24.8503 175.989 25.0606C175.556 25.2585 175.222 25.5306 174.987 25.877C174.765 26.211 174.653 26.582 174.653 26.9902C174.653 27.2995 174.715 27.5778 174.839 27.8252C174.975 28.0602 175.191 28.2767 175.488 28.4746C175.785 28.6725 176.169 28.8581 176.639 29.0313C177.121 29.1921 177.715 29.3405 178.42 29.4766C179.867 29.7735 181.16 30.1631 182.298 30.6455C183.436 31.1156 184.339 31.7588 185.007 32.5752C185.675 33.3792 186.009 34.4369 186.009 35.7481C186.009 36.6387 185.811 37.4551 185.415 38.1973C185.019 38.9395 184.45 39.5889 183.708 40.1455C182.966 40.6898 182.075 41.1166 181.036 41.4258C180.009 41.7227 178.853 41.8711 177.566 41.8711C175.699 41.8711 174.115 41.5371 172.816 40.8692C171.53 40.2012 170.553 39.3539 169.885 38.3272C169.229 37.2881 168.901 36.2243 168.901 35.1358H173.967C173.992 35.8656 174.177 36.4531 174.523 36.8985C174.882 37.3438 175.334 37.6654 175.878 37.8633C176.435 38.0612 177.035 38.1602 177.678 38.1602C178.37 38.1602 178.946 38.0674 179.403 37.8819C179.861 37.6839 180.207 37.4242 180.442 37.1026C180.69 36.7686 180.813 36.3851 180.813 35.9522ZM204.842 14.4844V41.5H199.275V14.4844H204.842ZM215.604 26.0254V30.3672H203.32V26.0254H215.604ZM216.902 14.4844V18.8447H203.32V14.4844H216.902ZM230.002 36.9727V28.0293C230.002 27.3861 229.897 26.8356 229.687 26.3779C229.476 25.9079 229.148 25.543 228.703 25.2832C228.27 25.0235 227.707 24.8936 227.015 24.8936C226.421 24.8936 225.908 24.9987 225.475 25.209C225.042 25.4069 224.708 25.6976 224.473 26.0811C224.238 26.4522 224.12 26.8913 224.12 27.3985H218.776C218.776 26.5449 218.974 25.7347 219.37 24.9678C219.766 24.2009 220.341 23.5267 221.096 22.9453C221.85 22.3516 222.747 21.8877 223.786 21.5537C224.838 21.2197 226.013 21.0527 227.312 21.0527C228.87 21.0527 230.256 21.3125 231.468 21.832C232.68 22.3516 233.632 23.1309 234.325 24.1699C235.03 25.209 235.383 26.5078 235.383 28.0664V36.6572C235.383 37.7582 235.451 38.6611 235.587 39.3662C235.723 40.0589 235.921 40.6651 236.181 41.1846V41.5H230.781C230.521 40.9557 230.324 40.2754 230.188 39.459C230.064 38.6302 230.002 37.8014 230.002 36.9727ZM230.707 29.2725L230.744 32.2969H227.757C227.052 32.2969 226.439 32.3773 225.92 32.5381C225.4 32.6989 224.974 32.9277 224.64 33.2246C224.306 33.5091 224.058 33.8431 223.897 34.2266C223.749 34.61 223.675 35.0306 223.675 35.4883C223.675 35.946 223.78 36.3604 223.99 36.7315C224.201 37.0902 224.504 37.3747 224.899 37.585C225.295 37.7829 225.759 37.8819 226.291 37.8819C227.095 37.8819 227.794 37.721 228.388 37.3994C228.981 37.0778 229.439 36.682 229.761 36.2119C230.095 35.7419 230.268 35.2966 230.28 34.876L231.69 37.1397C231.493 37.6468 231.22 38.1725 230.874 38.7168C230.54 39.2611 230.113 39.7744 229.594 40.2569C229.074 40.7269 228.45 41.1166 227.72 41.4258C226.99 41.7227 226.124 41.8711 225.122 41.8711C223.848 41.8711 222.691 41.6175 221.652 41.1104C220.626 40.5908 219.809 39.8796 219.203 38.9766C218.609 38.0612 218.312 37.0222 218.312 35.8594C218.312 34.808 218.51 33.874 218.906 33.0576C219.302 32.2412 219.883 31.5547 220.65 30.9981C221.43 30.4291 222.401 30.0023 223.563 29.7178C224.726 29.4209 226.075 29.2725 227.608 29.2725H230.707ZM244.846 25.8027V41.5H239.502V21.4238H244.53L244.846 25.8027ZM250.895 21.294L250.802 26.2481C250.542 26.211 250.227 26.18 249.855 26.1553C249.497 26.1182 249.169 26.0996 248.872 26.0996C248.118 26.0996 247.462 26.1986 246.905 26.3965C246.361 26.582 245.903 26.8604 245.532 27.2315C245.174 27.6026 244.901 28.0541 244.716 28.586C244.543 29.1179 244.444 29.724 244.419 30.4043L243.343 30.0703C243.343 28.7715 243.473 27.5778 243.732 26.4893C243.992 25.3884 244.369 24.4297 244.864 23.6133C245.371 22.7969 245.99 22.166 246.72 21.7207C247.45 21.2754 248.285 21.0527 249.225 21.0527C249.521 21.0527 249.825 21.0775 250.134 21.127C250.443 21.1641 250.697 21.2197 250.895 21.294ZM258.762 25.5801V41.5H253.399V21.4238H258.428L258.762 25.5801ZM258.02 30.7569H256.535C256.535 29.3591 256.702 28.0726 257.036 26.8975C257.382 25.71 257.883 24.6833 258.539 23.8174C259.207 22.9391 260.03 22.2588 261.007 21.7764C261.984 21.294 263.116 21.0527 264.402 21.0527C265.293 21.0527 266.109 21.1888 266.852 21.461C267.594 21.7207 268.231 22.1351 268.763 22.7041C269.307 23.2608 269.728 23.9906 270.024 24.8936C270.321 25.7842 270.47 26.8542 270.47 28.1035V41.5H265.126V28.6973C265.126 27.7819 265.002 27.0768 264.755 26.582C264.507 26.0873 264.155 25.7409 263.697 25.543C263.252 25.3451 262.714 25.2461 262.083 25.2461C261.39 25.2461 260.784 25.3884 260.265 25.6729C259.757 25.9574 259.337 26.3532 259.003 26.8604C258.669 27.3552 258.422 27.9365 258.261 28.6045C258.1 29.2725 258.02 29.9899 258.02 30.7569ZM269.969 30.1445L268.058 30.3858C268.058 29.0746 268.218 27.8561 268.54 26.7305C268.874 25.6048 269.363 24.6152 270.006 23.7617C270.661 22.9082 271.472 22.2464 272.437 21.7764C273.401 21.294 274.515 21.0527 275.776 21.0527C276.741 21.0527 277.619 21.195 278.411 21.4795C279.203 21.7516 279.877 22.1908 280.434 22.7969C281.003 23.3906 281.436 24.1699 281.732 25.1348C282.042 26.0996 282.196 27.2809 282.196 28.6787V41.5H276.834V28.6787C276.834 27.751 276.71 27.0459 276.463 26.5635C276.228 26.0687 275.882 25.7285 275.424 25.543C274.979 25.3451 274.447 25.2461 273.828 25.2461C273.185 25.2461 272.622 25.376 272.14 25.6358C271.657 25.8832 271.255 26.2295 270.934 26.6748C270.612 27.1201 270.371 27.6397 270.21 28.2334C270.049 28.8148 269.969 29.4518 269.969 30.1445Z" fill="#274C5B"/>
<path d="M1.85059 42.0684H19.2909H36.7312" stroke="#7EB693" stroke-width="2" stroke-miterlimit="10"/>
<path d="M5.79102 48.5L19.291 48.5L32.791 48.5" stroke="#7EB693" stroke-width="2" stroke-miterlimit="10"/>
<path d="M18.791 1.50002L18.791 8.50002L18.791 15.5" stroke="#7EB693" stroke-width="2" stroke-miterlimit="10"/>
<path d="M18.8657 14.7842V41.2158" stroke="#7EB693" stroke-width="2" stroke-miterlimit="10"/>
<path d="M29.9254 4.55275L18.8657 15.637" stroke="#7EB693" stroke-width="2" stroke-miterlimit="10"/>
<path d="M34.1792 8.81593L18.8657 24.1633" stroke="#7EB693" stroke-width="2" stroke-miterlimit="10"/>
<path d="M36.7314 15.6367L18.8657 32.6894" stroke="#7EB693" stroke-width="2" stroke-miterlimit="10"/>
<path d="M37.5821 23.3106L18.8657 42.0685" stroke="#7EB693" stroke-width="2" stroke-miterlimit="10"/>
<path d="M37.582 31.8369L27.373 42.0685" stroke="#7EB693" stroke-width="2" stroke-miterlimit="10"/>
<path d="M1 31.8369L11.209 42.0685" stroke="#7EB693" stroke-width="2" stroke-miterlimit="10"/>
<path d="M8.65674 4.55275L18.8657 15.637" stroke="#7EB693" stroke-width="2" stroke-miterlimit="10"/>
<path d="M4.40283 8.81593L18.8655 24.1633" stroke="#7EB693" stroke-width="2" stroke-miterlimit="10"/>
<path d="M1.85059 14.7842L18.8655 32.6895" stroke="#7EB693" stroke-width="2" stroke-miterlimit="10"/>
<path d="M1 22.458L18.8657 41.2159" stroke="#7EB693" stroke-width="2" stroke-miterlimit="10"/>
<path d="M19.291 54.8579C9.19019 54.8579 1 46.4056 1 35.9772V20.0228C1 9.5963 9.19019 1.14211 19.291 1.14211C29.3937 1.14211 37.5821 9.5963 37.5821 20.0228V35.9772C37.5839 46.4056 29.3937 54.8579 19.291 54.8579Z" stroke="#7EB693" stroke-width="2" stroke-miterlimit="10"/>
</svg>
