<svg width="39" height="56" viewBox="0 0 39 56" fill="none" xmlns="http://www.w3.org/2000/svg">
<path d="M2.13574 41.9258H19.576H37.0163" stroke="#7EB693" stroke-width="2" stroke-miterlimit="10"/>
<path d="M6.07617 48.3574L19.5762 48.3574L33.0762 48.3574" stroke="#7EB693" stroke-width="2" stroke-miterlimit="10"/>
<path d="M19.0762 1.35742L19.0762 8.35742L19.0762 15.3574" stroke="#7EB693" stroke-width="2" stroke-miterlimit="10"/>
<path d="M19.1509 14.6426V41.0742" stroke="#7EB693" stroke-width="2" stroke-miterlimit="10"/>
<path d="M30.2106 4.41016L19.1509 15.4944" stroke="#7EB693" stroke-width="2" stroke-miterlimit="10"/>
<path d="M34.4643 8.67383L19.1509 24.0212" stroke="#7EB693" stroke-width="2" stroke-miterlimit="10"/>
<path d="M37.0165 15.4941L19.1509 32.5468" stroke="#7EB693" stroke-width="2" stroke-miterlimit="10"/>
<path d="M37.8673 23.168L19.1509 41.9259" stroke="#7EB693" stroke-width="2" stroke-miterlimit="10"/>
<path d="M37.8672 31.6953L27.6582 41.9269" stroke="#7EB693" stroke-width="2" stroke-miterlimit="10"/>
<path d="M1.28516 31.6953L11.4941 41.9269" stroke="#7EB693" stroke-width="2" stroke-miterlimit="10"/>
<path d="M8.94189 4.41016L19.1509 15.4944" stroke="#7EB693" stroke-width="2" stroke-miterlimit="10"/>
<path d="M4.68799 8.67383L19.1507 24.0212" stroke="#7EB693" stroke-width="2" stroke-miterlimit="10"/>
<path d="M2.13574 14.6426L19.1507 32.5478" stroke="#7EB693" stroke-width="2" stroke-miterlimit="10"/>
<path d="M1.28516 22.3164L19.1508 41.0743" stroke="#7EB693" stroke-width="2" stroke-miterlimit="10"/>
<path d="M19.5762 54.7158C9.47534 54.7158 1.28516 46.2635 1.28516 35.8351V19.8806C1.28516 9.45419 9.47534 1 19.5762 1C29.6789 1 37.8672 9.45419 37.8672 19.8806V35.8351C37.8691 46.2635 29.6789 54.7158 19.5762 54.7158Z" stroke="#7EB693" stroke-width="2" stroke-miterlimit="10"/>
</svg>
